# xmcd CD database file
#
# Track frame offsets:
#	150
#	18037
#	44475
#
# Disc length: 829 seconds
#
# Revision: 0
# Processed by: cddbd v1.5.1PL0 Copyright (c) Steve Scherf et al.
# Submitted via: CDex 1.51
#
DISCID=19033b03
DTITLE=THE RHYTHM KINGS - 調子にのっておりました
DYEAR=1997
DGENRE=Anime
TTITLE0=調子にのっておりました
TTITLE1=リズキンマーチ
TTITLE2=調子にのっておりました(オリジナルカラオケ
EXTD=YEAR: 1997
EXTT0=
EXTT1=
EXTT2=
PLAYORDER=
